<?xml version="1.0" standalone="yes"?>
<svg xmlns="http://www.w3.org/2000/svg" width="1697" height="852">
<path id="floorplan_main" style="fill:#050505; stroke:none;" d="
M0 0L0 10L0 14L0 15L0 23L0 28L0 32L0 34L0 35L0 38L0 40L0 48L0 53L0 60L0 61L0 63L0 65L0 73L0 78L0 80L0 81L0 85L0 93L0 97L0 102L0 105L0 109L0 110L0 174L0 179L0 185L0 190L0 196L0 209L0 214L0 224L0 229L0 235L0 236L0 237L0 246L0 304L0 309L0 420L0 503L0 848L217 848L518 848L519 848L527 848L534 848L541 848L546 848L556 848L561 848L569 848L577 848L587 848L594 848L614 848L615 848L644 848L648 848L652 848L668 848L672 848L682 848L687 848L695 848L713 848L721 848L729 848L740 848L748 848L752 848L756 848L762 848L778 848L782 848L788 848L792 848L798 848L799 848L807 848L808 848L809 848L813 848L817 848L818 848L823 848L855 848L863 848L871 848L873 848L874 848L878 848L881 848L884 848L887.5 848L889 848L889.333 849.806L889.722 850.556L891.111 851.5L893 851.917L895 852L896 852L898 852L903 852L903 845L903 842L903 838L903 832L903 830L903 824L903 815L903 807L903 805L903 802L903 799L903 795L903 794L903 792L903 791L903 765L903 764L903 748L903 725L909 725L911 725L912 725.028L913 725.083L915 725.389L916 725.639L917 725.861L918 726.139L919 726.361L920 726.611L922 726.944L923 727.056L925 727.472L926 727.833L928 728.528L930 729L931 729.194L933 729.694L935 730.333L936 730.667L938 731.389L939 731.806L941 732.611L942 732.972L944 733.694L945 734.083L947 735.056L948 735.639L949 736.167L950 736.75L952 737.778L953 738.25L954 738.833L955 739.389L957 740.611L959 741.833L960 742.444L961 743.167L962 743.861L963 744.639L965 746.139L966 746.861L968 748.389L969 749.194L971 750.806L973 752.389L974.917 754.083L976.611 755.917L978.222 757.611L979.056 758.389L980.778 760.083L981.583 761.028L982.306 762L983.694 764L984.417 765L986 767L986.806 768L987.611 769L989.139 771L989.833 772L990.556 773L991.139 774L991.75 775L992.25 776L993.389 778L994.028 779L994.667 780L995.917 782L996.444 783L997.361 785L997.806 786L998.194 787L999.056 789L999.972 791L1000.42 792L1001.11 794L1001.39 795L1002 797L1002.33 798L1002.67 799L1003.33 801L1003.67 802L1004.31 804L1004.58 805L1004.92 807L1005.08 809L1005.22 810L1005.61 812L1005.81 813L1006.19 815L1006.39 816L1006.61 817L1006.92 819L1006.97 820L1007 821L1007 823L1007 830L1007 831L1007 850L1008 851L1010.06 851L1011.06 851L1013 851L1017.94 851L1020 851L1020 848L1033 848L1034 848L1035 848L1040 848L1041 848L1045 848L1053 848L1055 848L1060 848L1064 848L1072 848L1073 848L1074 848L1076 848L1084 848L1089 848L1091 848L1095 848L1096 848L1104 848L1106 848L1109 848L1110 848L1112 848L1114 848L1115 848L1117 848L1119 848L1120 848L1122 848L1127 848L1128 848L1129 848L1133 848L1138 848L1139 848L1143 848L1151 848L1152 848L1168 848L1169 848L1173 848L1174 848L1179 848L1180 848L1182 848L1246 848L1247 848L1249 848L1254 848L1256 848L1258 848L1259 848L1260 848L1261 848L1262 848L1266 848L1267 848L1268 848L1269 848L1270 848L1278 848L1279 848L1280 848L1281 848L1285 848L1286 848L1290 848L1291 848L1292 848L1293 848L1299 848L1302 848L1318 848L1320 848L1321 848L1322 848L1325 848L1341 848L1342 848L1346 848L1350 848L1351 848L1355 848L1356 848L1360 848L1361 848L1362 848L1363 848L1365 848L1366 848L1368 848L1370 848L1371 848L1372 848L1373 848L1374 848L1376 848L1384 848L1388 848L1392 848L1393 848L1394 848L1402 848L1404 848L1405 848L1407 848L1411 848L1412 848L1414 848L1416 848L1417 848L1419 848L1421 848L1425 848L1428 848L1429 848L1433 848L1434 848L1437 848L1441 848L1442 848L1444 848L1445 848L1448 848L1449 848L1453 848L1454 848L1455 848L1460 848L1468 848L1472 848L1473 848L1475 848L1477 848L1478 848L1479 848L1483 848L1484 848L1486 848L1490 848L1491 848L1495 848L1496 848L1500 848L1501 848L1502 848L1503 848L1504 848L1505 848L1507 848L1509 848L1510 848L1511 848L1515 848L1516 848L1517 848L1525 848L1529 848L1533 848L1534 848L1542 848L1546 848L1547 848L1549 848L1553 848L1554 848L1558 848L1559 848L1563 848L1564 848L1572 848L1576 848L1579 848L1580 848L1583 848L1585 848L1586 848L1590 848L1595 848L1596 848L1604 848L1620 848L1624 848L1628 848L1629 848L1637 848L1639 848L1640 848L1643 848L1647 848L1648 848L1649 848L1653 848L1654 848L1655 848L1660 848L1668 848L1684 848L1692 848L1693 848L1694.94 848L1697 848L1697 844L1697 840L1697 804L1697 785L1697 780L1697 775L1697 759L1697 754L1697 730L1697 726L1697 690L1697 681L1697 677L1697 676L1697 667L1697 664L1697 656L1697 584L1697 582L1697 577L1697 572L1697 570L1697 557L1697 549L1697 547L1697 529L1697 525L1697 408L1693 408L1692 408L1689 408L1688 408L1684 408L1683 408L1682 408L1678 408L1677 408L1673 408L1672 408L1668 408L1667 408L1666 408L1663 408L1661 408L1660 408L1656 408L1655 408L1654 408L1653 408L1645 408L1641 408L1640 408L1638 408L1635 408L1631 408L1630 408L1629 408L1627 408L1626 408L1625 408L1621 408L1620 408L1616 408L1614 408L1613 408L1611 408L1610 408L1602 408L1598 408L1597 408L1595 408L1593 408L1591 408L1590 408L1582 408L1574 408L1570 408L1567 408L1565 408L1564 408L1562 408L1561 408L1529 408L1526 408L1524 408L1522 408L1521 408L1520 408L1518 408L1514 408L1509 408L1507 408L1506 408L1504 408L1503 408L1499 408L1483 408L1481 408L1480 408L1476 408L1475 408L1471 408L1469 408L1468 408L1466 408L1465 408L1461 408L1460 408L1456 408L1454 408L1453 408L1451 408L1450 408L1446 408L1443 408L1441 408L1439 408L1438 408L1430 408L1426 408L1418 408L1414 408L1413 408L1411 408L1410 408L1406 408L1403 408L1399 408L1397 408L1394 408L1392 408L1391 408L1389 408L1388 408L1387 408L1383 408L1382 408L1381 408L1379 408L1376 408L1368 408L1367 408L1364 408L1362 408L1358 408L1357 408L1353 408L1349 408L1348 408L1346 408L1343 408L1342 408L1338 408L1337 408L1335 408L1331 408L1327 408L1323 408L1322 408L1318 408L1316 408L1313 408L1309 408L1308 408L1306 408L1302 408L1298 408L1295 408L1293 408L1292 408L1291 408L1290 408L1286 408L1285 408L1221 408L1219 408L1218 408L1214 408L1213 408L1211 408L1210 408L1206 408L1205 408L1201 408L1197 408L1195 408L1194 408L1192 408L1190 408L1186 408L1182 408L1180 408L1179 408L1177 408L1173 408L1169 408L1166 408L1164 408L1163 408L1155 408L1154 408L1150 408L1149.06 408L1146 408L1146 402L1142 402L1141 402L1135 402L1135 395L1135 393L1134.97 391L1134.92 390L1134.61 388L1134.36 387L1134.14 386L1133.86 385L1133.39 383L1133.19 382L1132.81 380L1132.58 379L1132.31 378L1131.69 376L1131.42 375L1131.19 374L1130.81 372L1130.31 370L1129.61 368L1129.17 367L1128.75 366L1128.25 365L1127.44 363L1127.14 362L1126.42 360L1125.97 359L1125.06 357L1124.61 356L1123.58 354L1122.39 352L1121.25 350L1120.75 349L1119.61 347L1118.39 345L1117.17 343L1116.53 342L1114.94 340L1114.06 339L1112.39 337L1111.61 336L1110.81 335L1109.19 333L1108.39 332L1107.61 331L1105.92 329L1104.97 328L1103 326.083L1101 324.389L1100 323.611L1098 321.917L1097 320.972L1096 320.028L1094 318.222L1093 317.417L1092 316.694L1090 315.306L1089 314.611L1087 313.167L1086 312.444L1084 311.25L1083 310.75L1081 309.611L1079 308.389L1078 307.833L1077 307.278L1075 306.389L1073 305.611L1071 304.75L1070 304.25L1068 303.389L1067 303.028L1066 302.667L1065 302.333L1064 302L1062 301.333L1061 301L1059 300.333L1058 300L1056 299.389L1055 299.139L1053 298.639L1052 298.389L1050 298.083L1048 297.917L1046 297.611L1045 297.389L1044 297.194L1042 296.806L1041 296.611L1040 296.389L1038 296.083L1037 296.028L1036 296L1034 296L1032 296L1031 296L1029.06 296L1027 296L1027 304L1027 336L1027 403L1022 403L1015 403L1015 408L1009 408L1008 408L1000 408L998 408L995 408L992 408L990 408L988 408L980 408L977 408L975 408L974 408L972 408L968 408L960 408L944 408L940 408L934 408L930 408L929 408L925 408L922 408L920 408L918 408L910 408L908 408L905 408L902 408L898 408L897 408L893 408L890 408L888 408L887 408L883 408L879 408L877 408L873 408L871 408L866 408L864 408L856 408L852 408L851 408L847 408L846 408L844 408L839 408L835 408L829 408L827 408L819 408L803 408L798 408L790 408L767 408L764 408L760 408L758 408L748 408L743 408L735 408L731 408L700 408L698 408L682 408L678 408L670 408L665 408L658 408L654 408L631 408L615 408L611 408L607 408L604 408L596 408L595 408L573 408L572 408L571 408L563 408L563 404L563 279L559 279L560.444 278.278L561 278.25L563 278L564 277L564 266L563 265L555 265L545 265L540 265L538 265L537 264.972L536 264.917L534 264.611L533 264.389L531 264.083L529 263.972L528 263.917L526 263.611L524 263.222L522 262.944L520 262.583L519 262.306L517 261.694L516 261.389L514 260.861L513 260.611L512 260.306L510 259.694L509 259.389L507 258.833L506 258.556L504 257.75L503 257.222L502 256.778L501 256.222L499 255.25L497 254.361L496 253.944L494 252.917L493 252.306L491 251.028L490 250.417L488.028 249.389L487.083 248.944L485.389 247.944L484.611 247.361L482.917 246.167L481.972 245.528L481 244.778L479 243.194L478 242.389L476 240.861L475.028 240.139L473.222 238.611L472.389 237.778L470.778 235.972L468.972 234.083L467.028 232.389L466.083 231.611L464.389 229.917L462.806 228L461.194 226L460.417 225L459.694 224L459 223L457.583 221L456.806 220L455.278 218.028L454.028 216.222L453.5 215.389L453 214.611L452 212.917L451 211L450.056 209L449.111 207L448.583 206L447.389 204L446.833 203L446.278 202L445.444 200L444.833 198L444.556 197L444.167 196L443.806 195L443.389 194L442.611 192L441.833 190L441.472 189L441.056 187L440.944 186L440.583 184L440.306 183L439.694 181L439.417 180L439.056 178L438.944 177L438.611 175L438.389 174L438.056 172L437.944 171L437.611 169L437.389 168L437.083 166L437.028 165L437 163.056L437 162.056L437 160L445 160L564 160L564 154L564 152L563.972 151L563.917 150L563.611 148L563.222 146L563.083 145L563 143L563 141L563 138L563 127L563 95L563 31L563 30L563 22L563 18L563 13L563 5L563 2.05554L563 0L557 0L555 0L549 0L546 0L545 0L539 0L537 0L530 0L516 0L451 0L410 0L407 0L406 0L376 0L359 0L320 0L311 0L295 0L265 0L262 0L261 0L231 0L202 0L199 0L193 0L185 0L170 0L169 0L159 0L140 0L137 0L107 0L106 0L96 0L91 0L88 0L58 0L0 0

M548 15L548 18.0555L548 20L548 22L548 23L548 24L548 26L548 28L548 32L548 34L548 42L548 43L548 48L548 56L548 72L548 74L548 77L548 81L548 82L548 84L548 92L548 103L548 104L548 105L548 137L548 142L548 148L541 148L541 150.056L541 151.056L541 154L541 158L537 158L529 158L517 158L478 158L454 158L446 158L444 158L442 158.028L441 158.083L439 158.389L438.056 158.611L437.056 158.778L436.5 158.917L435 159L435.25 160.5L435.611 162.056L435.917 164L435.972 165L436 166L436.028 168L436.083 169L436.389 171L436.611 172L436.917 174L436.972 175L437 177L437.028 178L437.083 179L437.472 181L438.167 183L438.528 184L438.778 185L439.222 187L439.472 188L440.167 190L440.556 191L441.139 193L441.389 194L441.694 195L442.333 197L443.083 199L443.972 201L444.417 202L445.139 204L445.444 205L445.861 206L446.278 207L446.861 208L447.444 209L448.167 210L449.556 212L450.75 214L451.25 215L452.389 217L453.611 219L454.833 221L455.472 221.972L456.222 222.917L457.806 224.611L458.611 225.389L460.194 227.083L461 228.028L462.611 230L463.389 231L465.083 233L467 235L468 236L470 237.917L471 238.778L472 239.611L474 241.222L475 242.083L477 243.917L479 245.611L480 246.361L481 247.139L483 248.556L485 249.75L486 250.25L488 251.444L489 252.139L491 253.417L493 254.528L494 255.056L496 256.167L498 257.222L499 257.75L501 258.556L503 259.167L504 259.444L506 260.194L507 260.611L509 261.333L510 261.667L512 262.306L514 262.806L516 263.194L517 263.417L518 263.694L520 264.306L521 264.583L523 264.944L524 265.056L526 265.389L527 265.611L528 265.806L530 266.194L531 266.389L532 266.611L534 266.917L535 266.972L537 267L537.944 267L541 267L541 278L550 278L549.333 279.083L549.028 279.472L548.306 281.083L548.111 282.028L548.028 283L548 284L548 286L548 288L548 291L548 315L548 317L548 408L546.5 408L517 408L467 408L458 408L398 408L377 408L293 408L15 408L15 286L15 281L15 277L15 264L15 252L15 250L15 230L15 223L15 211L15 206L15 196L15 194L15 189L15 188L15 181L15 178L15 172L15 164L15 157L15 155L15 139L15 134L15 126L15 121L15 113L15 112L15 108L15 104L15 98L15 94L15 88L15 72L15 68L15 66L15 50L15 39L15 35L15 34L15 32L15 28L15 23L15 15L70 15L104 15L106 15L170 15L174 15L176 15L224 15L234 15L252 15L257 15L276 15L277 15L309 15L320 15L336 15L346 15L347 15L360 15L384 15L387 15L390 15L404 15L413 15L424 15L428 15L533 15L543 15L548 15

M562 149L563 150L563 158L554 158L544 158L543 157L543 149L549 149L558 149L562 149

M562 267L562 276L560.5 275.917L559.944 275.778L558 275.389L556 275.083L554 275.028L553 275.083L551 275.389L550 275.611L548 275.917L547 275.972L545.056 276L543 276L543 272L543 267L549 267L558 267L562 267

M1133 424L1134 425L1138 425L1139 425L1143.94 425L1146 425L1146 423L1154 423L1155 423L1156 423L1164 423L1169 423L1172 423L1176 423L1180 423L1182 423L1184 423L1185 423L1189 423L1191 423L1195 423L1196 423L1199 423L1203 423L1205 423L1208 423L1211 423L1212 423L1216 423L1224 423L1225 423L1226 423L1228 423L1230 423L1232 423L1234 423L1236 423L1240 423L1241 423L1242 423L1246 423L1247 423L1255 423L1256 423L1257 423L1261 423L1262 423L1266 423L1267 423L1268 423L1284 423L1285 423L1286 423L1288 423L1289 423L1293 423L1294 423L1302 423L1306 423L1314 423L1315 423L1317 423L1321 423L1322 423L1323 423L1325 423L1327 423L1329 423L1332 423L1334 423L1336 423L1340 423L1345 423L1346 423L1350 423L1358 423L1360 423L1364 423L1372 423L1380 423L1388 423L1392 423L1400 423L1404 423L1408 423L1409 423L1410 423L1426 423L1427 423L1431 423L1432 423L1433 423L1437 423L1439 423L1442 423L1458 423L1459 423L1463 423L1464 423L1472 423L1474 423L1475 423L1477 423L1478 423L1479 423L1480 423L1484 423L1487 423L1491 423L1492 423L1493 423L1494 423L1495 423L1497 423L1501 423L1505 423L1506 423L1514 423L1515 423L1519 423L1521 423L1522 423L1524 423L1526 423L1529 423L1537 423L1538 423L1542 423L1546 423L1547 423L1548 423L1550 423L1554 423L1557 423L1561 423L1569 423L1571 423L1575 423L1576 423L1577 423L1580 423L1582 423L1586 423L1588 423L1592 423L1595 423L1597 423L1598 423L1600 423L1601 423L1603 423L1604 423L1608 423L1609 423L1613 423L1621 423L1629 423L1633 423L1634 423L1636 423L1638 423L1641 423L1645 423L1653 423L1657 423L1665 423L1673 423L1676 423L1678 423L1679.94 423L1682 423L1682 432L1682 464L1682 476L1682 478L1682 496L1682 508L1682 510L1682 512L1682 530L1682 542L1682 544L1682 547L1682 553L1682 559L1682 560L1682 561L1682 574L1682 575L1682 584L1682 613L1682 615L1682 617L1682 635L1682 641L1682 833L1679.94 833L1678.94 833L1677 833L1675 833L1674 833L1670 833L1666 833L1665 833L1633 833L1631 833L1623 833L1621 833L1620 833L1619 833L1615 833L1614 833L1610 833L1606 833L1605 833L1601 833L1600 833L1598 833L1596 833L1595 833L1593 833L1591 833L1590 833L1582 833L1581 833L1573 833L1572 833L1568 833L1564 833L1563 833L1561 833L1559 833L1558 833L1550 833L1546 833L1545 833L1543 833L1539 833L1538 833L1534 833L1533 833L1529 833L1528 833L1526 833L1524 833L1522 833L1521 833L1517 833L1513 833L1512 833L1511 833L1507 833L1499 833L1483 833L1481 833L1480 833L1476 833L1475 833L1471 833L1469 833L1468 833L1466 833L1465 833L1461 833L1459 833L1458 833L1456 833L1455 833L1453 833L1452 833L1448 833L1444 833L1443 833L1439 833L1438 833L1434 833L1433 833L1430 833L1427 833L1424 833L1420 833L1416 833L1415 833L1411 833L1410 833L1406 833L1404 833L1403 833L1399 833L1398 833L1397 833L1396 833L1388 833L1387 833L1386 833L1380 833L1379 833L1376 833L1372 833L1364 833L1363 833L1362 833L1346 833L1342 833L1338 833L1337 833L1336 833L1328 833L1325 833L1322 833L1319 833L1316 833L1313 833L1305 833L1303 833L1302 833L1298 833L1296 833L1288 833L1287 833L1283 833L1282 833L1281 833L1277 833L1276 833L1272 833L1268 833L1264 833L1260 833L1259 833L1258 833L1257 833L1255 833L1253 833L1249 833L1248 833L1240 833L1238 833L1234 833L1233 833L1225 833L1223 833L1221 833L1220 833L1212 833L1210 833L1209 833L1207 833L1203 833L1202 833L1198 833L1197 833L1195 833L1194 833L1192 833L1191 833L1189 833L1188 833L1187 833L1183 833L1179 833L1178 833L1177 833L1174 833L1172 833L1168 833L1164 833L1163 833L1159 833L1158 833L1157 833L1153 833L1152 833L1151 833L1149 833L1147 833L1146 833L1144 833L1143 833L1141 833L1140 833L1139 833L1138 833L1137 833L1129 833L1127 833L1126 833L1110 833L1109 833L1107 833L1103 833L1102 833L1094 833L1093 833L1092 833L1088 833L1086 833L1070 833L1068 833L1067 833L1066 833L1062 833L1061 833L1057 833L1056 833L1051 833L1049 833L1048 833L1044 833L1043 833L1039 833L1038 833L1037 833L1036 833L1035 833L1033 833L1031 833L1029 833L1028 833L1027 833L1025 833L1020 833L1020 828L1018.5 828L1016 828L1014 828L1012.06 828L1011.06 828L1009 828L1009 821L1009 819L1008.97 818L1008.92 817L1008.61 815L1008.36 814L1008.14 813L1007.86 812L1007.39 810L1007.19 809L1006.81 807L1006.58 806L1006.31 805L1005.69 803L1005.39 802L1005.14 801L1004.61 799L1004 797L1003.33 795L1002.97 794L1002.61 793L1002.19 792L1001.39 790L1000.61 788L1000.17 787L999.75 786L998.778 784L998.222 783L997.222 781L996.75 780L995.611 778L994.389 776L993.194 774L992.611 773L991.306 771L989.861 769L989.139 768L988.361 767L986.861 765L986.139 764.028L984.639 762.222L983.139 760.611L982.361 759.778L980.778 757.972L979.917 757L978.972 756L978 755L977 754L975 752.083L974 751.222L973 750.389L971 748.778L970 747.917L968 746.028L967 745.083L966 744.25L965 743.472L963 742.167L962 741.556L960 740.167L959 739.444L957 738.25L956 737.75L954 736.611L952 735.389L951 734.833L950 734.278L948 733.389L946 732.611L944 731.75L943 731.25L941 730.389L940 730.028L939 729.667L938 729.333L935 728.333L932 727.333L931 727L929 726.389L928 726.139L926 725.639L925 725.389L923 725.083L921 724.917L919 724.611L918 724.389L916 724.056L915 723.944L913 723.611L912 723.389L910 723.083L909 723.028L908 723L906 723L902.5 723L901 723L901 724.5L901 742L901 743L901 767L901 768L901 769L901 775L901 778L901 799L901 802L901 829L898.944 829L897.944 829L896 829L889 829L889 833L873 833L869 833L868 833L860 833L856 833L850 833L847 833L841 833L831 833L830 833L826 833L824 833L823 833L815 833L807 833L799 833L796 833L790 833L787 833L783 833L781 833L771 833L766 833L762 833L757 833L754 833L750 833L718 833L710 833L707 833L703 833L695 833L690 833L687 833L683 833L682 833L674 833L673 833L665 833L656 833L648 833L643 833L640 833L636 833L633 833L625 833L616 833L614 833L613 833L605 833L585 833L563 833L563 827L563 747L563 728L563 726L563 725L562.972 724L562.889 723.028L562.333 721.333L561.389 720.361L560 720L560.778 719.194L561.25 719.028L562.528 718.444L564 718L564 707L563 706L555 706L545 706L539 706L537 706L536 705.972L535 705.917L533 705.611L532 705.389L530 705.056L528 704.778L527 704.611L525 704.222L524 704.083L522 703.972L521 703.917L520 703.778L519 703.583L517 703L516 702.694L515 702.389L514 702.139L512 701.611L511 701.306L509 700.694L508 700.389L506 699.833L505 699.528L503 698.611L502 698.056L500 697.056L499 696.639L497 695.806L496 695.361L495 694.944L493 693.917L492 693.306L490 692.028L489 691.389L487 690.194L486 689.611L484 688.333L483 687.667L481 686.306L480 685.583L479 684.806L477 683.194L476 682.389L474.028 680.861L473.083 680.139L471.389 678.611L470.611 677.806L469 676.194L468.194 675.417L467.417 674.694L466 673.306L464.583 671.778L463.778 670.917L462.944 669.972L462.056 669L460.389 667L458.861 665L458.139 664L456.639 662L455.861 661L455.167 660L454.444 659L453.25 657L452.75 656L451.639 654L451.056 653L450.056 651L449.111 649L448.583 648L447.389 646L446.833 645L446.278 644L445.833 643L445.389 642L444.667 640L444.333 639L443.667 637L443.333 636L442.611 634L441.833 632L441.472 631L441.056 629L440.944 628L440.583 626L440.306 625L439.694 623L439.417 622L439.056 620L438.944 619L438.611 617L438.389 616L438.083 614L437.917 612L437.611 610L437.389 609L437.083 607L437.028 606L437 604.056L437 603.056L437 601L564 601L564 596L564 594L563.972 593L563.917 592L563.611 590L563.222 588L563.083 587L563 585L563 583L563 579L563 567L563 531L563 423L573 423L578 423L584 423L587 423L590 423L600 423L607 423L627 423L631 423L635 423L645 423L661 423L669 423L685 423L703 423L711 423L712 423L716 423L719 423L723 423L725 423L733 423L736 423L744 423L767 423L783 423L791 423L794 423L799 423L800 423L808 423L809 423L812 423L813 423L815 423L818 423L823 423L829 423L831 423L835 423L843 423L847 423L851 423L859 423L867 423L871 423L875 423L876 423L881 423L886 423L887 423L890 423L893 423L895 423L896 423L898 423L903 423L911 423L912 423L922 423L930 423L934 423L942 423L947 423L955 423L971 423L976 423L984 423L986 423L989 423L993 423L999 423L1015 423L1015 426L1019 426L1021 426L1022 426L1024 426L1025.94 426L1026.94 426L1029 426L1029 298L1031.06 298L1032.06 298L1033 298L1035 298L1036 298L1038 298L1039 298.028L1040 298.083L1042 298.389L1043 298.639L1044 298.861L1045 299.139L1046 299.361L1047 299.639L1048 299.861L1050 300.361L1052 300.861L1053 301.139L1055 301.611L1056 301.806L1058 302.194L1059 302.417L1060 302.694L1062 303.389L1063 303.806L1064 304.194L1065 304.611L1067 305.333L1068 305.667L1069 306.028L1070 306.389L1072 307.25L1073 307.778L1074 308.222L1075 308.778L1076 309.222L1077 309.778L1078 310.222L1080 311.25L1081 311.833L1082 312.389L1084 313.611L1086 314.833L1087 315.472L1088 316.222L1089 317L1091 318.583L1092 319.306L1094 320.694L1095 321.417L1097 323.083L1098 324.028L1100 325.972L1100.97 326.917L1101.92 327.778L1103.61 329.389L1105.19 331.083L1106 332.028L1106.81 332.972L1107.58 333.917L1109 335.611L1110.39 337.222L1111.14 338.083L1112.56 340L1113.17 341L1114.47 343L1115.22 344L1115.97 345L1117.39 347L1118.53 349L1119.06 350L1120.19 352L1120.81 353L1121.36 354L1121.94 355L1122.94 357L1123.36 358L1123.81 359L1124.19 360L1125.06 362L1125.97 364L1126.42 365L1127.11 367L1127.39 368L1128 370L1128.67 372L1129.33 374L1129.67 375L1130.31 377L1130.58 378L1130.92 380L1131.08 382L1131.39 384L1131.64 385L1131.86 386L1132.14 387L1132.36 388L1132.61 389L1132.92 391L1132.97 392L1133 393L1133 395L1133 402L1133 424

M1144 404L1144 405.5L1144 407.056L1144 424L1141.94 424L1140 424L1139.06 424L1136 424L1135 423L1135 421.5L1135 405L1136 404L1138.06 404L1139.06 404L1140.94 404L1141.94 404L1144 404

M1026 405L1026 424L1024.5 424L1021.06 424L1018 424L1018 405L1019.5 405L1022.94 405L1026 405

M548 423L548 429L548 473L548 475L548 589L541 589L541 599L473 599L453 599L445 599L443 599L441 599.028L440 599.083L438.056 599.389L436.5 599.75L435 600L435.25 601.5L435.611 603.056L435.917 605L435.972 606L436 607L436.028 609L436.083 610L436.389 612L436.611 613L436.917 615L437 617L437 618L437.083 620L437.222 621L437.417 622L437.694 623L438.306 625L438.611 626L439.139 628L439.389 629L440 631L440.333 632L441.333 635L442 637L442.333 638L443.083 640L444 642L444.917 644L445.306 645L446.028 647L446.417 648L447.472 650L448.833 652L449.556 653L450.75 655L451.25 656L452.389 658L453.611 660L454.833 662L455.472 663L457.083 665L459 667L460.917 669L461.778 670L463.389 672L464.222 673L465.083 674L467 676L468 677L470 678.917L471 679.778L472 680.611L474 682.222L475 683.083L477 684.917L479 686.583L480 687.306L482 688.667L483 689.333L485 690.611L486 691.194L488 692.444L489 693.139L491 694.417L493 695.528L494 696.056L496 697.167L498 698.222L499 698.75L501 699.556L503 700.167L504 700.444L506 701.194L507 701.611L509 702.333L510 702.667L512 703.306L514 703.806L516 704.194L517 704.417L519 705L521 705.667L523 706.306L524 706.583L526 706.917L528 707.028L529 707.083L531 707.389L532 707.611L534 707.917L535 707.972L537 708L537.944 708L541 708L541 719L551 719L550.278 719.722L549.75 719.75L548 720L548 722.056L548 833L546.5 833L537 833L508 833L464 833L15 833L15 423L184 423L240 423L259 423L265 423L267 423L268 423L269.972 423.056L271.778 423.167L272.611 423.222L273.389 423.167L275.083 423.056L277 423L278 423L280 423L287 423L307 423L367 423L370 423L548 423

M562 590L562.722 591.5L562.75 592.056L562.944 593.056L562.972 594L563 595L563 595.944L563 599L554 599L544 599L543 598L543 591L552 591L554 591L556 590.972L557 590.917L558.944 590.611L560.5 590.25L562 590

M562 708L562 717L560.5 716.75L558.944 716.389L557 716.083L555 716.028L554 716.083L552 716.389L551 716.611L549 716.917L548 716.972L546.056 717L545.056 717L543 717L543 708L549 708L558 708L562 708

M1018 830L1018 838L1018 850L1014.94 850L1010 850L1009 849L1009 841L1009 831L1010 830L1012.06 830L1015.94 830L1018 830

M900 831L900 850L892 850L892 831L900 831z


"/>

<path id="bath" style="fill:#050505; stroke:none;" d="
M35 41L35 57L35 61L35 65L35 66L35 76L35 77L35 81L35 83L35 87L35 95L35 103L35 108L35 111L35 115L36.5 115L42 115L48 115L201 115L201 110L201 103L201 93L201 89L201 83L201 78L201 70L201 65L201 59L201 58L201 51L201 47L201 41L193 41L187 41L181 41L180 41L172 41L35 41


M200 42L200 44.0555L200 49L200 57L200 61L200 62L200 66L200 82L200 88L200 89L200 91L200 93L200 94L200 98L200 101L200 114L36 114L36 109L36 101L36 97L36 91L36 88L36 78L36 73L36 71L36 67L36 66L36 61L36 56L36 54L36 49L36 45.0555L36 44.0555L36 42L38.0556 42L50 42L64 42L66 42L90 42L94 42L103 42L200 42

M48 52L48 55.0555L48 56L48 58L48 74L48 82L48 98L48 103L145 103L162 103L165 103L167 103L168 103L170 102.917L171 102.75L172 102.528L173 102.139L174 101.722L176 100.528L178 98.9167L179 97.9722L180.972 96L182.694 94L183.917 92L184.833 90L185.25 89L186.139 87L186.556 86L186.833 85L187.361 83L187.611 82L187.917 80L187.972 79L188 78L187.917 76L187.611 74L187.389 73L187 71L186.778 70L186.528 69L185.75 67L185.222 66L184.778 65L183.75 63.0833L182.611 61.3889L181.972 60.6111L180.583 59L179.778 58.1945L177.972 56.6945L176 55.3333L175 54.6667L173 53.4166L171 52.5L170 52.25L168 52.0278L167 52L165 52L164 52L162 52L157 52L131 52L126 52L48 52

M49 101L49 97.9445L49 95L49 93L49 90L49 86L49 81L49 76L49 75L49 74L49 73L49 69L49 64L49 62L49 54L57 54L58 54L62 54L69 54L131 54L157 54L162 54L164 54L165 54L167 54L168 54.0278L170 54.25L171 54.4722L173 55.2778L174 55.8333L175 56.3889L176.972 57.6945L177.917 58.4167L179.611 60.0833L181.139 62L181.833 63L182.528 64L183.583 66L184.333 68L185 70L185.306 71L185.861 73L186.139 74L186.361 75L186.694 77L186.583 79L186.139 81L185.861 82L185.361 84L184.833 86L184.556 87L183.75 89L183.222 90L182.75 91L181.528 93L180.75 94L179.917 95L178 96.9167L177 97.7778L176 98.5833L174 99.8889L173 100.361L172 100.694L170 100.972L169 101L167 101L166 101L164 101L159 101L133 101L49 101"/>

<path id="sink" style="fill:#050505; stroke:none;" d="

M338 440L338 501L526 501L526 499.5L526 440L338 440

M524 442L524 500L516 500L455 500L451 500L447 500L341 500L340 499L340 442L524 442

M344 444L343 445L343 446.5L343 496L402 496L402 444L344 444

M461 444L461 467L461 496L520 496L520 444L461 444

M401 446L401 495L381 495L381 489L366 489L366 495L344 495L344 447L345 446L401 446

M519 447L518.694 449.056L518.611 451L518.694 452L518.917 454L518.972 455L519 457L519 458L519 463L519 495L512 495L499 495L499 489L483 489L483 495L462 495L462 446L500 446L510 446L513 446L514 446L515 446.028L515.944 446.056L516.944 446.25L517.5 446.278L519 447

M391 450L391.083 451.5L391.25 452.028L391.5 452.972L392.5 454.5L394.083 455.472L395.028 455.639L395.972 455.583L396.889 455.25L398.278 453.889L398.667 452.972L398.889 452.056L399 450.5L399 449L398 448L395.944 448.083L394.056 448.444L392.5 449.028L391 450

M410 448L410.778 449.139L411.306 449.333L412.111 449.722L414 449.972L416 450L418 450L422 450L452 450L452 448L410 448

M509 450L509.028 451.5L509.333 453.028L510.333 454.667L512.028 455.639L513 455.778L513.972 455.639L514.889 455.278L516.25 453.889L516.583 452.972L516.528 451.056L516.139 450.056L515.972 449.5L515 448L513.5 448.25L512 448.667L511.056 449.028L510.5 449.194L509 450

M398 451L398 453L397 454L393 454L393 450L395 450.056L396 450.25L396.5 450.278L398 451

M514 450L515 451L515 454L514 455L511 455L510.583 453.556L510.25 452.444L510 451L511.444 450.278L512 450.25L514 450

M410 457L410.778 457.722L411.306 457.75L412.111 457.944L413.028 457.972L414 458L416 458L417 458L419 458L423 458L453 458L452.222 457.278L451.694 457.25L450.889 457.056L449.972 457.028L449 457L447 457L445 457L440 457L439 457L410 457

M411 466L411 468L437 468L442 468L444 468L445 468L447 468L448 467.972L448.944 467.944L449.944 467.75L450.5 467.722L452 467L451.222 466.278L450.694 466.25L449.889 466.056L448.972 466.028L448 466L446 466L444 466L439 466L411 466

M411 474L411 476L452 476L452 474L449.944 474L411 474

M411 483L411 485L452 485L452 483L411 483

M379 490L379 495L367 495L367 490L379 490

M410 492L410.778 492.722L411.306 492.75L412.111 492.944L413.028 492.972L414 493L416 493L417 493L419 493L423 493L452 493L452 491L427 491L422 491L420 491L418.028 491.056L417.083 491.139L415.389 491.222L414.611 491.194L412.972 491.278L411.5 491.583L410 492

M497 491L497 495L492 495L490 495L488 494.972L487.028 494.889L486.111 494.667L485.333 494.278L484.722 493.722L484.333 492.944L484 491L497 491"/>

<path id="table_chairs" style="fill:#050505; stroke:none;" d="

M132 584L132 618L94 618L94 700L132 700L132 735L170 735L170 700L203 700L204 701L204 735L242 735L242 700L281 700L281 618L242 618L242 584L204 584L204 618L170 618L170 584L132 584

M169 585L169 591L134 591L134 585L169 585

M240 585L240 591L205 591L205 585L240 585


M135 592L136.5 592.722L137.056 592.75L138.056 592.944L139 592.972L140 593L142 593L144 593L148 593L169 593L169 618L148 618L142 618L140 618L138 618.083L137.056 618.222L136.056 618.417L134 619L134 601L134 598L134 597L134.028 595.028L134.056 594.111L134.25 593.306L134.278 592.778L135 592

M240 593L240 618L205 618L205 593L240 593

M280 620L280 698L95 698L95 620L280 620

M169 700L169 726L134 726L134 700L169 700

M240 700L240 726L205 726L205 700L240 700

M169 728L169 734L134 734L134 728L169 728

M240 728L240 734L205 734L205 728L240 728"/>

<path id="sofa" style="fill:#050505; stroke:none;" d="

M629 441L629 530L630.5 530L642 530L642 528L650 528L660 528L664 528L670 528L681 528L689 528L694 528L700 528L701 528L705 528L710 528L712 528L715 528L720 528L726 528L731 528L735 528L741 528L743 528L744 528L747 528L755 528L757 528L761 528L762 528L794 528L802 528L807 528L815 528L820 528L822 528L823 528.028L825 528.306L826 528.611L828 529.389L830 529.889L831 529.972L832 530L834 530L840 530L840 519L840 514L840 512L840 509L840 507L840 506L840 441L836 441L828 441L818 441L817 441L814 441L810 441L808 441L804 441L798 441L797 441L793 441L788 441L778 441L774 441L772 441L768 441L767 441L758 441L748 441L745 441L741 441L735 441L711 441L708 441L702 441L697 441L691 441L689 441L686 441L678 441L670 441L663 441L634 441L629 441

M839 442L839 529L835 529L829 529L829 452L824 452L820 452L818 452L802 452L791 452L777 452L772 452L768 452L765 452L760 452L752 452L751 452L747 452L744 452L740 452L736 452L731 452L729 452L727 452L726 452L724 452L722 452L721 452L715 452L712 452L708 452L706 452L703 452L700 452L696 452L695 452L694 452L689 452L681 452L677 452L670 452L669 452L665 452L660 452L656 452L650 452L649 452L641 452L641 459L641 466L641 529L631 529L631 525.944L631 442L642 442L647 442L649 442L650 442L652 442L655 442L659 442L661 442L672 442L676 442L679 442L683 442L699 442L700 442L704 442L708 442L714 442L730 442L734 442L740 442L751 442L768 442L780 442L788 442L791 442L795 442L797 442L801 442L803 442L804 442L806 442L814 442L818 442L821 442L829 442L833 442L839 442

M734 453L734 455.056L734 526L726 526L717 526L715 526L711 526L703 526L702 526L693 526L683 526L679 526L677 526L664 526L661 526L657 526L649 526L642 526L642 454L643 453L644.5 453L645.056 453L662 453L664 453L666 453L670 453L674 453L676 453L679 453L686 453L694 453L696 453L701 453L707 453L708 453L734 453

M827 453L827 458L827 459L827 461L827 478L827 480L827 487L827 526L804 526L802 526L800 526L781 526L777 526L769 526L768 526L761 526L759 526L755 526L746 526L736 526L736 453L738.056 453L739.056 453L741 453L743 453L747 453L748 453L753 453L765 453L767 453L769 453L774 453L776 453L781 453L789 453L793 453L794 453L797 453L798 453L803 453L811 453L827 453"/>

<path id="chair_left" style="fill:#050505; stroke:none;" d="
M602 693L602 783L607 783L609 783L610 783L611 783L613 783.111L615 783.722L616 784.333L618 786.028L620 788L621 789L622 789.972L623 790.889L625 792.278L627 792.889L629 793L630 793L633 793L644 793L654 793L665 793L672 793L674 793L675 793L677 792.889L677.972 792.667L678.917 792.278L679.778 791.694L680.611 790.972L682.222 789.389L683.083 788.611L685 786.917L686 786L688 784.333L689 783.722L691 783.111L692 783.028L694 783L695 783L697 783L702 783L702 776L702 693L693 693L687 693L682 693L674 693L666 693L656 693L624 693L602 693

M615 694L615 700L615 713L615 781L614 782L612.5 782L603 782L603 779.944L603 771L603 767L603 762L603 759L603 694L615 694

M688 694L688 711L684.944 711L675 711L674 711L669 711L666 711L662 711L661 711L659 711L627 711L616 711L616 694L627 694L632 694L644 694L651 694L683 694L688 694

M701 694L701 697.056L701 699L701 782L696 782L694 782L689 782L689 694L694 694L701 694

M688 713L688 762L688 775L688 777L688 778L687.889 780L687.278 782L685.889 783.917L685 784.778L683.222 786.306L681.694 787.694L680.306 789.194L679.583 789.972L677.917 791.278L676.972 791.667L675 791.972L673 792L671 792L666 792L644 792L643 792L633 792L631 792L630 792L628 791.889L627 791.667L626 791.278L624 789.889L622 788L621 787L619.056 785.111L618.056 784.306L617.5 783.778L616 783L616 776L616 713L627 713L632 713L644 713L648 713L664 713L668 713L684 713L688 713"/>

<path id="chair_right1" style="fill:#050505; stroke:none;" d="

M1323 446L1323 447.5L1323 463L1323 475L1323 479L1323 483L1323 485L1323 536L1327 536L1328 536L1330 536L1331 536L1332 536L1334 536.111L1336 536.722L1337 537.333L1339 539.028L1341 541L1342 542L1343 542.972L1344 543.889L1346 545.278L1348 545.889L1350 546L1351 546L1353 546L1354 546L1355 546L1359 546L1363 546L1364 546L1365 546L1367 546L1371 546L1372 546L1373 546L1377 546L1378 546L1379 546L1383 546L1384 546L1386 546L1388 546L1392 546L1393 546L1394 546L1396.94 546L1400 546L1400.78 544.75L1401.31 544.333L1402.11 543.556L1403.92 541.917L1405.58 540.083L1406.28 539.222L1406.89 538.444L1407.36 537.667L1407.67 537.25L1408 536L1410.06 536L1411.06 536L1412 536L1414 536L1416 536L1417 536L1419 536L1419.94 536L1420.94 536L1423 536L1423 529L1423 528L1423 525L1423 510L1423 446L1420.94 446L1419.94 446L1418 446L1417 446L1413 446L1411 446L1409 446L1408 446L1404 446L1403 446L1395 446L1391 446L1390 446L1386 446L1384 446L1383 446L1381 446L1379 446L1378 446L1377 446L1376 446L1374 446L1366 446L1364 446L1361 446L1353 446L1352 446L1350 446L1345 446L1341 446L1340 446L1339 446L1337 446L1333 446L1332 446L1330 446L1328 446L1327 446L1326.06 446L1323 446

M1336 447L1336 449.056L1336 450.056L1336 461L1336 463L1336 468L1336 469L1336 474L1336 476L1336 487L1336 488L1336 497L1336 498L1336 499L1336 501L1336 502L1336 509L1336 510L1336 515L1336 535L1333.94 535L1331 535L1328 535L1327.06 535L1324 535L1324 531L1324 528L1324 526L1324 519L1324 516L1324 515L1324 514L1324 510L1324 447L1328 447L1329 447L1331 447L1333.94 447L1336 447

M1408 447L1409 448L1409 464L1405 464L1400 464L1398 464L1394 464L1393 464L1389 464L1384 464L1382 464L1350 464L1345 464L1341 464L1340.06 464L1337 464L1337 447L1338.5 447L1340.06 447L1343 447L1347 447L1348 447L1350 447L1358 447L1362 447L1366 447L1367 447L1371 447L1372 447L1373 447L1374 447L1375 447L1379 447L1387 447L1388 447L1389 447L1390 447L1395 447L1397 447L1401 447L1402 447L1404.94 447L1406.5 447L1408 447

M1421 447L1422 448L1422 534L1421 535L1418.94 535L1417.94 535L1416 535L1415 535L1413.06 535L1410 535L1410 532.944L1410 531L1410 525L1410 522L1410 521L1410 519L1410 447L1412.06 447L1413.06 447L1414 447L1417.94 447L1419.5 447L1421 447

M1409 466L1409 467.5L1409 468.056L1409 471L1409 535L1407.17 536.389L1406.36 537.056L1405 538.333L1404.33 539L1403 540.417L1401.58 542.056L1400.78 542.917L1398.97 544.278L1398 544.667L1397 544.889L1395 545L1394 545L1392 545L1388 545L1385 545L1382 545L1379 545L1376 545L1373 545L1369 545L1365 545L1364 545L1363 545L1362 545L1361 545L1359 545L1357 545L1355 545L1354 545L1352 545L1350 544.972L1348 544.667L1347 544.278L1345 542.889L1344 541.972L1342 540L1340.03 538L1339.11 537L1337.72 535L1337.11 533L1337 531L1337 530L1337 528L1337 515L1337 512L1337 510L1337 506L1337 505L1337 466L1338.5 466L1339.06 466L1341 466L1342 466L1343 466L1344 466L1348 466L1349 466L1353 466L1354 466L1356 466L1360 466L1361 466L1362 466L1364 466L1368 466L1369 466L1377 466L1378 466L1382 466L1384 466L1388 466L1389 466L1390 466L1391 466L1393 466L1395 466L1396 466L1400 466L1404 466L1405.94 466L1406.94 466L1409 466"/>

<path id="chair_right2" style="fill:#050505; stroke:none;" d="

M1493 450L1493 451.5L1493 454L1493 455L1493 468L1493 470L1493 483L1493 484L1493 490L1493 506L1493 511L1493 541L1495.06 541L1496.06 541L1498 541L1499 541L1500 541L1502 541L1503 541L1504 541L1505.94 541L1508 541L1508.36 542.417L1508.72 542.833L1509.31 543.667L1510.03 544.389L1511.61 546.083L1512.39 547.028L1514.08 548.917L1516 550.5L1518 551.5L1519 551.75L1521 551.972L1523 552L1524 552L1525 552L1527 552L1529 552L1531 552L1532 552L1533 552L1537 552L1538 552L1539 552L1543 552L1551 552L1554 552L1558 552L1559 552L1560 552L1564 552L1565 552L1567 552L1569 552L1570 551.972L1572 551.667L1573 551.278L1574 550.667L1576 548.972L1578 547L1579 546L1581 544.028L1583 542.333L1584 541.722L1586 541.111L1587 541.028L1589 541L1591 541L1592.94 541L1593.94 541L1596 541L1596 534L1596 533L1596 526L1596 512L1596 510L1596 508L1596 506L1596 450L1593.94 450L1592.94 450L1592 450L1588 450L1587 450L1586 450L1584 450L1583 450L1579 450L1578 450L1574 450L1573 450L1571 450L1507 450L1505 450L1502 450L1498 450L1497 450L1495.06 450L1493 450

M1507 451L1507 454.056L1507 460L1507 461L1507 462L1507 467L1507 471L1507 486L1507 489L1507 497L1507 510L1507 513L1507 514L1507 515L1507 520L1507 522L1507 523L1507 540L1498.06 540L1497.06 540L1495 540L1495 537.944L1495 536L1495 534L1495 531L1495 452L1496 451L1498.06 451L1499.06 451L1501 451L1502 451L1503 451L1504.94 451L1507 451

M1581 451L1581 457L1581 461L1581 469L1578.94 469L1576 469L1575 469L1574 469L1573 469L1569 469L1565 469L1564 469L1560 469L1556 469L1554 469L1553 469L1551 469L1547 469L1546 469L1542 469L1538 469L1537 469L1535 469L1534 469L1530 469L1526 469L1525 469L1523 469L1519 469L1518 469L1512.06 469L1509 469L1509 451L1511.06 451L1513 451L1514 451L1546 451L1550 451L1551 451L1555 451L1556 451L1557 451L1558 451L1562 451L1564 451L1568 451L1569 451L1570 451L1574 451L1576 451L1577.94 451L1579.5 451L1581 451

M1595 451L1595 453.056L1595 465L1595 466L1595 468L1595 472L1595 474L1595 476L1595 540L1592.94 540L1591.94 540L1591 540L1590 540L1589 540L1587 540L1586.06 540L1585.06 540L1583 540L1583 537.944L1583 533L1583 532L1583 522L1583 521L1583 519L1583 514L1583 452L1584 451L1588 451L1589 451L1590 451L1591 451L1592.94 451L1595 451

M1581 470L1581 471.5L1581 473.056L1581 474L1581 476L1581 480L1581 481L1581 494L1581 520L1581 534L1581 536L1581 537L1580.89 539L1580.28 541L1578.89 543L1577.97 544L1576 546L1574 547.972L1573 548.889L1571 550.278L1570 550.667L1568 550.972L1567 551L1565 551L1563 551L1559 551L1558 551L1554 551L1553 551L1549 551L1547 551L1546 551L1542 551L1534 551L1533 551L1529 551L1528 551L1526 551L1525 551L1523 551L1522 550.972L1520 550.667L1519 550.278L1517 548.889L1516 547.972L1514 546L1512.03 544L1511.11 543L1509.72 541L1509.11 539L1509 537L1509 536L1509 534L1509 520L1509 519L1509 470L1541 470L1545 470L1546 470L1550 470L1554 470L1558 470L1559 470L1560 470L1561 470L1563 470L1564 470L1572 470L1576 470L1577.94 470L1579.5 470L1581 470"/>

<path id="bed1" style="fill:#050505; stroke:none;" d="

M1188 609L1188 613L1188 812L1189.5 812L1190.06 812L1192 812L1193 812L1197 812L1198 812L1200 812L1201 812L1202 812L1203 812L1204 812L1208 812L1211 812L1213 812L1214 812L1216 812L1219 812L1221 812L1222 812L1224 812L1225 812L1226 812L1227 812L1231 812L1232 812L1236 812L1237 812L1238 812L1239 812L1243 812L1245 812L1246 812L1248 812L1256 812L1264 812L1265 812L1266 812L1268 812L1272 812L1273 812L1277 812L1285 812L1286 812L1290 812L1294 812L1298 812L1299 812L1303 812L1304 812L1305 812L1314.94 812L1318 812L1318 801L1318 799L1318 797L1318 787L1318 779L1318 763L1318 759L1318 756L1318 705L1318 700L1318 695L1318 670L1318 669L1318 658L1318 654L1318 652L1318.08 650L1318.36 648L1318.53 647L1318.56 646L1318.53 645L1318.36 644L1318.08 642L1318 640L1318 639L1318 637L1318 636L1318 635L1318 630L1318 627L1318 626L1318 609L1314 609L1313 609L1312 609L1311 609L1309 609L1307 609L1306 609L1305 609L1301 609L1299 609L1298 609L1297 609L1296 609L1292 609L1289 609L1286 609L1285 609L1281 609L1280 609L1276 609L1275 609L1274 609L1271 609L1269 609L1261 609L1260 609L1256 609L1255 609L1251 609L1249 609L1248 609L1244 609L1228 609L1226 609L1218 609L1214 609L1213 609L1209 609L1208 609L1204 609L1203 609L1199 609L1198 609L1197 609L1195 609L1194 609L1192 609L1191.06 609L1188 609

M1316 611L1316 617L1316 645L1313.94 645L1312.94 645L1311 645L1309 645L1305 645L1304 645L1301 645L1298 645L1295 645L1293 645L1289 645L1285 645L1284 645L1283 645L1279 645L1276 645L1274 645L1273 645L1271 645L1267 645L1265 645L1264 645L1263 645L1259 645L1251 645L1247 645L1246 645L1245 645L1240 645L1236 645L1235 645L1234 645L1233 645L1229 645L1225 645L1224 645L1222 645L1221 645L1217 645L1216 645L1215 645L1199 645L1195 645L1190 645L1190 642.944L1190 611L1193.06 611L1194 611L1199 611L1200 611L1201 611L1202 611L1203 611L1207 611L1212 611L1213 611L1215 611L1220 611L1221 611L1223 611L1224 611L1228 611L1236 611L1240 611L1244 611L1245 611L1246 611L1247 611L1252 611L1253 611L1261 611L1269 611L1270 611L1271 611L1272 611L1280 611L1284 611L1288 611L1289 611L1290 611L1291 611L1293 611L1294 611L1298 611L1300 611L1301 611L1305 611L1306 611L1308 611L1316 611

M1309 646L1308.22 646.806L1307.69 646.972L1306.89 647.333L1305 647.806L1303 648.194L1302 648.417L1301 648.694L1299 649.306L1298 649.583L1296 650L1295 650.194L1294 650.389L1293 650.639L1292 650.861L1291 651.139L1289 651.611L1288 651.806L1286 652.194L1285 652.417L1283 653L1281 653.583L1279 654L1277 654.417L1276 654.694L1274 655.306L1273 655.583L1271 655.917L1269 656.083L1267 656.389L1266 656.639L1264 657.139L1263 657.361L1262 657.639L1261 657.861L1259 658.389L1258 658.694L1256 659.306L1255 659.611L1253 660.139L1251 660.611L1249 661L1247 661.417L1246 661.694L1244 662.306L1243 662.583L1242 662.806L1240 663.194L1239 663.389L1237 663.861L1236 664.139L1234 664.639L1232 665.139L1231 665.361L1230 665.639L1229 665.861L1227 666.361L1226 666.611L1224 666.944L1223 667.056L1221 667.389L1220 667.639L1219 667.861L1218 668.139L1216 668.611L1215 668.806L1214 669L1212 669.417L1210 670L1209 670.306L1208 670.611L1206 671.139L1205 671.361L1204 671.639L1203 671.861L1202 672.139L1200 672.639L1199 672.861L1197 673.361L1196 673.639L1195 673.861L1194 674.139L1193.06 674.361L1191.5 674.75L1190 675L1190 646L1193.06 646L1194 646L1199 646L1200 646L1208 646L1209 646L1210 646L1214 646L1216 646L1219 646L1220 646L1221 646L1237 646L1245 646L1253 646L1254 646L1256 646L1258 646L1262 646L1263 646L1264 646L1265 646L1273 646L1274 646L1275 646L1276 646L1277 646L1278 646L1281 646L1283 646L1287 646L1288 646L1289 646L1293 646L1294 646L1298 646L1299 646L1301 646L1302 646L1305 646L1305.94 646L1306.94 646L1309 646

M1316 648L1316 677L1316 678L1316 680L1316 681L1316 685L1316 694L1316 696L1316 697L1316 706L1316 720L1316 721L1316 732L1316 735L1316 737L1316 740L1316 810L1314.5 810L1312.94 810L1312 810L1308 810L1307 810L1304 810L1303 810L1299 810L1298 810L1297 810L1295 810L1293 810L1292 810L1289 810L1286 810L1278 810L1276 810L1275 810L1274 810L1271 810L1267 810L1265 810L1263 810L1255 810L1254 810L1252 810L1244 810L1243 810L1239 810L1231 810L1230 810L1229 810L1228 810L1224 810L1223 810L1215 810L1211 810L1209 810L1201 810L1200 810L1196 810L1190 810L1190 799L1190 680L1191.42 680.778L1191.83 681.306L1192.67 682.111L1193.36 683.028L1194.14 684L1195.61 686L1196.31 687L1197.69 689L1198.39 690L1199.14 691L1200.56 693L1201.17 694L1202.44 696L1203.83 698L1204.56 699L1205.17 700L1205.81 701L1206.94 702.944L1207.31 703.5L1208 705L1209.5 704.5L1210.06 704.167L1211.06 703.75L1213 702.778L1214 702.222L1215 701.778L1216 701.222L1217 700.778L1218 700.222L1219 699.778L1220 699.222L1221 698.778L1222 698.222L1223 697.75L1225 696.611L1227 695.389L1229 694.194L1230 693.611L1232 692.389L1233 691.833L1234 691.25L1236 690.222L1237 689.778L1238 689.222L1240 688.222L1241 687.778L1242 687.222L1243 686.75L1245 685.639L1246 685.056L1248 684.056L1249 683.611L1251 682.583L1253 681.389L1255 680.194L1256 679.611L1258 678.389L1259 677.833L1260 677.25L1262 676.222L1263 675.75L1264 675.167L1266 674.056L1268 673.056L1269 672.639L1271 671.722L1272 671.167L1273 670.611L1275 669.389L1276 668.833L1277 668.25L1279 667.222L1280 666.778L1281 666.222L1283 665.222L1284 664.75L1286 663.611L1288 662.389L1290 661.25L1292 660.222L1293 659.75L1294 659.167L1295 658.611L1297 657.417L1299 656.417L1301 655.583L1302 655.111L1304 654L1305 653.389L1307 652.25L1308 651.75L1310 650.611L1311.94 649.389L1312.5 649.056L1314 648L1316 648

M1306 649L1305.64 650.389L1304.67 651.417L1303.89 651.917L1302 652.917L1301 653.472L1299 654.833L1298 655.528L1296 656.583L1295 657L1293 657.889L1291 659L1290 659.611L1289 660.167L1288 660.75L1286 661.778L1285 662.222L1284 662.778L1283 663.222L1282 663.778L1280 664.778L1279 665.222L1277 666.222L1276 666.778L1275 667.222L1274 667.778L1273 668.25L1271 669.389L1270 670.028L1269 670.667L1267 672L1265 673.306L1264 673.917L1262 674.944L1261 675.389L1260 675.889L1259 676.389L1258 676.944L1256 677.944L1255 678.361L1253 679.25L1252 679.778L1251 680.25L1250 680.833L1249 681.389L1247 682.611L1245 683.75L1244 684.25L1242 685.389L1241 686.028L1239 687.306L1238 687.917L1236 688.944L1235 689.361L1234 689.833L1233 690.25L1232 690.778L1231 691.25L1230 691.833L1229 692.389L1227 693.611L1226 694.167L1225 694.75L1224 695.222L1222 696.25L1221 696.833L1219 697.944L1217 698.944L1215 699.889L1213 701L1212.06 701.583L1211.06 702.111L1210.5 702.472L1209 703L1208.25 701.5L1207.78 700.944L1206.44 699L1205.83 698L1204.56 696L1203.83 695L1202.44 693L1201.83 692.028L1200.56 690.222L1199.17 688.611L1198.44 687.778L1197.19 685.972L1196.61 685L1195.31 683L1193.89 681L1192.69 679.056L1192.11 677.5L1192 676L1194.06 675.917L1196 675.611L1198 675.194L1200 674.806L1201 674.583L1202 674.306L1204 673.694L1205 673.389L1207 672.861L1208 672.611L1209 672.306L1211 671.694L1212 671.417L1214 671.056L1215 670.944L1217 670.528L1218 670.167L1220 669.472L1221 669.222L1223 668.806L1224 668.611L1226 668.139L1227 667.861L1228 667.639L1230 667.222L1231 667.083L1233 666.917L1235 666.583L1236 666.306L1238 665.667L1240 665L1242 664.417L1243 664.194L1245 663.806L1246 663.611L1248 663.194L1249 663L1251 662.583L1252 662.306L1254 661.694L1255 661.417L1256 661.194L1258 660.806L1259 660.611L1261 660.139L1263 659.611L1265 659L1267 658.417L1268 658.194L1270 657.806L1271 657.583L1272 657.306L1274 656.694L1275 656.417L1276 656.222L1277 656.083L1278 656.028L1280 655.917L1282 655.583L1283 655.306L1285 654.694L1286 654.389L1288 653.861L1289 653.639L1291 653.139L1292 652.861L1294 652.389L1295 652.194L1296 652L1298 651.583L1300 650.972L1300.94 650.639L1302.5 649.972L1304 649L1306 649
"/>

<path id="bed2" style="fill:#050505; stroke:none;" d="
M1531 626L1531 630L1531 650L1531 653L1531 654L1530.97 656L1530.72 657.889L1530.33 658.694L1530.14 659.222L1529 660L1529 662L1531 662L1531 665.056L1531 669L1531 678L1531 686L1531 708L1531 711L1531 712L1531 717L1531 720L1531 725L1531 728L1531 748L1531 752L1531 755L1531 757L1531 758L1531 761L1531 765L1531 776L1531 781L1531 822L1533.06 822L1534.06 822L1535 822L1536 822L1540 822L1541 822L1543 822L1544 822L1547 822L1549 822L1553 822L1555 822L1560 822L1568 822L1570 822L1578 822L1594 822L1595 822L1597 822L1598 822L1600 822L1601 822L1602 822L1605 822L1610 822L1611 822L1619 822L1623 822L1624 822L1632 822L1636 822L1637 822L1641 822L1642 822L1646 822L1647 822L1651 822L1651.94 822L1652.94 822L1655 822L1655 818.944L1655 811L1655 798L1655 794L1655 784L1655 778L1655 767L1655 757L1655 626L1652.94 626L1651.94 626L1648 626L1647 626L1643 626L1642 626L1640 626L1638 626L1637 626L1633 626L1629 626L1628 626L1627 626L1625 626L1623 626L1622 626L1606 626L1604 626L1600 626L1596 626L1595 626L1594 626L1592 626L1591 626L1583 626L1567 626L1551 626L1550 626L1546 626L1544 626L1543 626L1541 626L1539 626L1538 626L1536 626L1535 626L1534.06 626L1533.06 626L1531 626

M1653 628L1653 660L1652 661L1648 661L1644 661L1643 661L1642 661L1638 661L1637 661L1636 661L1632 661L1630 661L1627 661L1619 661L1617 661L1585 661L1582 661L1580 661L1579 661L1577 661L1576 661L1575 661L1573 661L1571 661L1569 661L1567 661L1566 661L1565 661L1549 661L1533 661L1533 652L1533 628L1535.06 628L1536.06 628L1538 628L1541 628L1542 628L1546 628L1547 628L1548 628L1564 628L1572 628L1573 628L1577 628L1579 628L1581 628L1582 628L1590 628L1598 628L1601 628L1603 628L1607 628L1609 628L1613 628L1616 628L1620 628L1621 628L1622 628L1630 628L1634 628L1635 628L1643 628L1644 628L1648 628L1650.94 628L1653 628

M1541 662L1543.06 662L1544.06 662L1546 662L1548 662L1549 662L1550 662L1553 662L1555 662L1559 662L1563 662L1564 662L1572 662L1576 662L1579 662L1581 662L1585 662L1586 662L1590 662L1595 662L1596 662L1598 662L1606 662L1610 662L1611 662L1613 662L1617 662L1618 662L1619 662L1623 662L1624 662L1625 662L1627 662L1631 662L1635 662L1636 662L1644 662L1648 662L1649 662L1650.94 662L1653 662L1653 664.056L1653 668L1653 670L1653 675L1653 679L1653 689L1650.94 688.917L1649 688.611L1648 688.389L1647 688.194L1645 687.806L1643 687.389L1641 687L1639 686.583L1638 686.306L1636 685.694L1635 685.417L1634 685.194L1632 684.806L1630 684.306L1628 683.667L1626 683L1624 682.389L1623 682.139L1622 681.861L1620 681.389L1618 681.056L1617 680.944L1615 680.611L1614 680.361L1613 680.139L1612 679.861L1610 679.389L1609 679.194L1607 678.806L1606 678.611L1605 678.361L1604 678.139L1602 677.611L1601 677.306L1599 676.694L1598 676.389L1596 675.861L1594 675.389L1592 675.056L1591 674.944L1589 674.583L1588 674.306L1586 673.694L1585 673.417L1583 673L1581 672.583L1580 672.306L1578 671.694L1577 671.417L1575 671L1573 670.611L1571 670.139L1569 669.611L1567 669L1565 668.417L1563 668L1562 667.806L1560 667.389L1559 667.222L1557 666.944L1555 666.528L1553 665.833L1552 665.472L1550 665L1548 664.583L1547 664.306L1545 663.694L1544 663.417L1543.06 663.222L1541.5 663.028L1540 663L1541 662

M1534 664L1535.5 664.528L1536.06 664.889L1537.06 665.389L1538 665.944L1540 666.944L1541 667.361L1543 668.278L1545 669.444L1546 670.139L1548 671.389L1550 672.361L1551 672.833L1552 673.25L1554 674.222L1555 674.778L1556 675.25L1558 676.444L1560 677.833L1561 678.556L1563 679.75L1564 680.222L1566 681.222L1567 681.778L1569 682.75L1570 683.167L1571 683.639L1573 684.611L1575 685.861L1576 686.556L1578 687.75L1579 688.222L1581 689.222L1582 689.778L1583 690.222L1585 691.25L1586 691.833L1587 692.389L1589 693.611L1590 694.167L1591 694.75L1592 695.222L1593 695.778L1594 696.222L1596 697.25L1597 697.833L1598 698.389L1600 699.611L1601 700.167L1602 700.75L1603 701.222L1605 702.25L1607 703.389L1609 704.611L1611 705.75L1613 706.778L1614 707.222L1615 707.778L1617 708.778L1618 709.25L1619 709.833L1620 710.389L1622 711.611L1623 712.167L1624 712.75L1626 713.778L1627 714.25L1628 714.833L1630 715.944L1631 716.472L1632.94 717.5L1633.94 718L1634.5 718.333L1636 719L1636.36 717.5L1636.69 716.944L1637.25 715.944L1638.56 714L1639.83 712L1640.44 711L1641.86 709L1642.61 708L1643.31 707L1644.69 705L1645.39 704L1646.14 703L1647.61 701L1648.97 699L1649.61 698.028L1650.78 696.333L1651.78 695.361L1653 695L1653 697.056L1653 701L1653 703L1653 704L1653 714L1653 734L1653 739L1653 744L1653 746L1653 748L1653 753L1653 757L1653 761L1653 771L1653 775L1653 777L1653 778L1653 788L1653 820L1650.94 820L1649 820L1647 820L1646 820L1642 820L1638 820L1637 820L1636 820L1632 820L1630 820L1627 820L1623 820L1622 820L1621 820L1619 820L1618 820L1616 820L1614 820L1613 820L1611 820L1610 820L1602 820L1601 820L1597 820L1593 820L1592 820L1591 820L1583 820L1579 820L1578 820L1576 820L1572 820L1568 820L1567 820L1563 820L1562 820L1561 820L1553 820L1552 820L1550 820L1548 820L1546 820L1545 820L1543 820L1539 820L1538 820L1537 820L1535.06 820L1533 820L1533 817.944L1533 816.944L1533 814L1533 798L1533 793L1533 765L1533 760L1533 759L1533 755L1533 741L1533 740L1533 708L1533 707L1533 706L1533 677L1533 672L1533 670L1533 668L1533.03 667.028L1533.06 666.111L1533.25 665.306L1533.28 664.778L1534 664z

M1543 665L1544.5 665.444L1545.06 665.667L1547 666.306L1549 666.806L1551 667.194L1553 667.611L1555 667.944L1556 668.056L1558 668.417L1560 669L1562 669.611L1563 669.861L1564 670.139L1566 670.611L1568 671L1570 671.417L1572 672L1574 672.611L1576 673.139L1578 673.611L1579 673.806L1581 674.194L1582 674.389L1584 674.861L1585 675.139L1587 675.639L1588 675.861L1589 676.139L1590 676.361L1592 676.861L1593 677.139L1595 677.611L1597 678L1599 678.472L1600 678.833L1602 679.528L1604 679.944L1605 680.056L1607 680.389L1608 680.639L1609 680.861L1610 681.139L1612 681.611L1613 681.806L1614 682L1616 682.417L1617 682.694L1619 683.306L1620 683.583L1622 684L1624 684.417L1626 685L1628 685.583L1630 686L1632 686.417L1633 686.694L1635 687.306L1636 687.583L1638 688L1639 688.194L1641 688.611L1642 688.806L1644 689.194L1645 689.417L1647 690L1647.94 690.306L1648.94 690.583L1649.5 690.75L1651 691L1650.72 692.5L1650.08 694.056L1649.58 695L1648.33 697L1647.67 698L1647 699L1645.67 701L1644.33 703L1643.67 704L1642.33 706L1641.67 707L1640.33 709L1639.67 709.972L1639 710.917L1637.67 712.611L1636.42 714.167L1635.89 715.028L1635.53 715.528L1635 717L1633.5 716.306L1632.94 715.944L1631 714.833L1630 714.25L1629 713.778L1627 712.75L1626 712.167L1625 711.611L1623 710.389L1622 709.833L1621 709.25L1619 708.222L1618 707.778L1617 707.222L1616 706.75L1615 706.167L1614 705.611L1612 704.389L1611 703.833L1610 703.25L1608 702.222L1607 701.778L1606 701.222L1604 700.222L1602 699.222L1601 698.75L1599 697.556L1598 696.833L1596 695.472L1595 694.917L1593 693.944L1591 692.944L1590 692.361L1588 691.25L1587 690.75L1585 689.611L1583 688.417L1581 687.389L1580 686.944L1578 685.944L1576 684.833L1575 684.25L1573 683.222L1572 682.778L1571 682.222L1570 681.75L1568 680.611L1566 679.333L1564 678.028L1562 676.833L1561 676.278L1559 675.361L1558 674.944L1556 673.944L1555 673.361L1553 672.25L1552 671.75L1550 670.611L1548 669.417L1546 668.389L1545.03 667.917L1543.39 666.806L1542.64 665.75L1543 665z
"
/>

<path id="skylight" style="fill:#050505; stroke:none;" d="

M1381 715L1381 723L1381 724L1381 804L1383.06 804L1385 804L1390 804L1391 804L1395 804L1396 804L1397 804L1405 804L1406 804L1410 804L1411 804L1415 804L1423 804L1431 804L1433 804L1437 804L1438 804L1439 804L1440 804L1441 804L1445 804L1446 804L1450 804L1451 804L1452 804L1453 804L1457 804L1458 804L1460 804L1463 804L1464 804L1465 804L1466 804L1470 804L1470 801.944L1470 794L1470 793L1470 784L1470 776L1470 762L1470 752L1470 744L1470 739L1470 715L1466 715L1465 715L1463 715L1459 715L1458 715L1426 715L1422 715L1418 715L1414 715L1413 715L1412 715L1411 715L1409 715L1406 715L1405 715L1401 715L1397 715L1393 715L1392 715L1391 715L1387 715L1386 715L1384.06 715L1381 715

M1467 716L1466.22 717.5L1465.69 718.056L1464.89 719.056L1463.97 720L1462 722L1461 723L1459 725L1458 726L1456 728L1455 729L1451 733L1447 737L1443 741L1441 743L1440 744L1439 745L1438.03 746L1437.11 746.944L1436.31 747.944L1435.78 748.5L1435 750L1438.06 746.944L1440 745L1441 744L1443 742L1444 741L1448 737L1449 736L1457 728L1460 725L1462 723L1464 721.028L1465 720.111L1465.94 719.333L1467.5 718.361L1469 718L1469 721.056L1469 723L1469 730L1469 732L1469 801L1467.53 800.639L1466.17 799.694L1464.67 798.278L1464.25 797.778L1463 797L1463.78 798.5L1464.28 799.056L1465.72 800.944L1466.22 801.5L1467 803L1463 803L1462 803L1460 803L1457 803L1456 803L1454 803L1452 803L1450 803L1449 803L1448 803L1444 803L1442 803L1438 803L1437 803L1433 803L1432 803L1431 803L1429 803L1425 803L1424 803L1423 803L1391 803L1390 803L1389 803L1386.06 803L1385.06 803L1383 803L1383.78 801.5L1384.31 800.944L1385.11 799.944L1386.03 799L1388 797L1390 795L1391 794L1393 792L1395 790L1398 787L1400 785L1408 777L1410 775L1411 774L1412 773L1413.97 771L1414.89 770.056L1415.69 769.056L1416.22 768.5L1417 767L1414.94 769.056L1412 772L1411 773L1409 775L1408 776L1407 777L1403 781L1395 789L1390 794L1388 796L1386 797.972L1385.06 798.889L1384.06 799.694L1383.5 800.222L1382 801L1382 797.944L1382 797L1382 793L1382 792L1382 783L1382 718L1383 718L1384 716L1386.06 716L1387.06 716L1390 716L1391 716L1395 716L1396 716L1397 716L1399 716L1400 716L1416 716L1418 716L1420 716L1422 716L1423 716L1425 716L1429 716L1433 716L1434 716L1436 716L1440 716L1441 716L1442 716L1443 716L1445 716L1450 716L1451 716L1455 716L1456 716L1460 716L1462 716L1463 716L1464.94 716L1467 716

M1384 718L1384.36 719.25L1384.72 719.667L1385.33 720.444L1387.03 722.083L1388.92 723.972L1390.61 725.778L1391.39 726.611L1392.22 727.389L1394.03 729.083L1395.97 731L1397.78 732.917L1398.61 733.778L1399.39 734.611L1400.22 735.389L1401.08 736.222L1402.92 738L1404.58 739.778L1405.31 740.611L1406 741.361L1406.69 742.139L1408.22 743.639L1409.94 745.194L1411.61 746.806L1412.36 747.611L1413.14 748.389L1414.64 750.083L1416.22 751.917L1417.06 752.778L1418.78 754.306L1419.58 755L1420.31 755.694L1421.64 757.111L1422.36 757.778L1422.75 758.25L1424 759L1421.94 761.056L1420.94 762.056L1420.03 763L1419.11 763.944L1418.31 764.944L1417.78 765.5L1417 767L1418.5 766.639L1420.06 765.667L1421 764.889L1422.89 763.056L1423.69 762.056L1424.22 761.5L1425 760L1427.06 762.056L1428.06 763.056L1431 766L1433 768L1434.97 770L1435.92 771L1437.61 772.972L1439.22 774.778L1440.08 775.611L1442 777.222L1443 778.083L1444.92 779.972L1445.78 780.917L1447.39 782.611L1448.22 783.389L1450 785.083L1450.92 786L1452.58 787.778L1454 789.306L1455.42 790.694L1456.22 791.417L1458 793.083L1458.92 794L1460.56 795.667L1461.33 796.278L1461.75 796.639L1463 797L1462.64 795.5L1462.28 794.944L1460.89 793.083L1459.08 791.417L1457.42 790L1456.69 789.306L1456 788.583L1454.58 786.917L1452.92 785.083L1451.08 783.389L1450.22 782.611L1449.39 781.778L1447.78 779.972L1446.92 779L1445.97 778.028L1445 777.083L1443.08 775.389L1442.22 774.639L1441.39 773.861L1439.86 772.361L1439.14 771.611L1438.36 770.778L1436.78 769.056L1435.06 767.389L1434.22 766.611L1433.39 765.778L1431.78 763.972L1430.03 762.111L1429.06 761.306L1428.5 760.778L1427 760L1427 758L1428.5 757.222L1429.06 756.694L1430.06 755.889L1431.97 754L1432.89 753.056L1433.69 752.056L1434.22 751.5L1435 750L1433.5 750.778L1432.94 751.306L1431.94 752.111L1430 754L1428.11 755.944L1427.31 756.944L1426.78 757.5L1426 759L1423.94 756.944L1422.94 755.944L1422 755L1421 754L1420 753L1418.03 751L1417.08 750L1415.39 748.083L1414.64 747.222L1413.86 746.389L1412.36 744.861L1410.86 743.361L1409.36 741.778L1408.61 740.917L1406.92 739L1405 737.083L1404.03 736.222L1402.22 734.694L1401.42 734L1400 732.583L1399.31 731.778L1397.78 730L1396.92 729.083L1395.08 727.417L1393.42 726L1392.69 725.306L1392 724.583L1390.58 722.917L1388.92 721.083L1387.06 719.5L1385.5 718.528L1384 718"/>
</svg>