<?xml version="1.0" standalone="yes"?>
<svg xmlns="http://www.w3.org/2000/svg" width="1697" height="852">
<path id="bed1" style="fill:#050505; stroke:none;" d="

M1188 609L1188 613L1188 812L1189.5 812L1190.06 812L1192 812L1193 812L1197 812L1198 812L1200 812L1201 812L1202 812L1203 812L1204 812L1208 812L1211 812L1213 812L1214 812L1216 812L1219 812L1221 812L1222 812L1224 812L1225 812L1226 812L1227 812L1231 812L1232 812L1236 812L1237 812L1238 812L1239 812L1243 812L1245 812L1246 812L1248 812L1256 812L1264 812L1265 812L1266 812L1268 812L1272 812L1273 812L1277 812L1285 812L1286 812L1290 812L1294 812L1298 812L1299 812L1303 812L1304 812L1305 812L1314.94 812L1318 812L1318 801L1318 799L1318 797L1318 787L1318 779L1318 763L1318 759L1318 756L1318 705L1318 700L1318 695L1318 670L1318 669L1318 658L1318 654L1318 652L1318.08 650L1318.36 648L1318.53 647L1318.56 646L1318.53 645L1318.36 644L1318.08 642L1318 640L1318 639L1318 637L1318 636L1318 635L1318 630L1318 627L1318 626L1318 609L1314 609L1313 609L1312 609L1311 609L1309 609L1307 609L1306 609L1305 609L1301 609L1299 609L1298 609L1297 609L1296 609L1292 609L1289 609L1286 609L1285 609L1281 609L1280 609L1276 609L1275 609L1274 609L1271 609L1269 609L1261 609L1260 609L1256 609L1255 609L1251 609L1249 609L1248 609L1244 609L1228 609L1226 609L1218 609L1214 609L1213 609L1209 609L1208 609L1204 609L1203 609L1199 609L1198 609L1197 609L1195 609L1194 609L1192 609L1191.06 609L1188 609

M1316 611L1316 617L1316 645L1313.94 645L1312.94 645L1311 645L1309 645L1305 645L1304 645L1301 645L1298 645L1295 645L1293 645L1289 645L1285 645L1284 645L1283 645L1279 645L1276 645L1274 645L1273 645L1271 645L1267 645L1265 645L1264 645L1263 645L1259 645L1251 645L1247 645L1246 645L1245 645L1240 645L1236 645L1235 645L1234 645L1233 645L1229 645L1225 645L1224 645L1222 645L1221 645L1217 645L1216 645L1215 645L1199 645L1195 645L1190 645L1190 642.944L1190 611L1193.06 611L1194 611L1199 611L1200 611L1201 611L1202 611L1203 611L1207 611L1212 611L1213 611L1215 611L1220 611L1221 611L1223 611L1224 611L1228 611L1236 611L1240 611L1244 611L1245 611L1246 611L1247 611L1252 611L1253 611L1261 611L1269 611L1270 611L1271 611L1272 611L1280 611L1284 611L1288 611L1289 611L1290 611L1291 611L1293 611L1294 611L1298 611L1300 611L1301 611L1305 611L1306 611L1308 611L1316 611

M1309 646L1308.22 646.806L1307.69 646.972L1306.89 647.333L1305 647.806L1303 648.194L1302 648.417L1301 648.694L1299 649.306L1298 649.583L1296 650L1295 650.194L1294 650.389L1293 650.639L1292 650.861L1291 651.139L1289 651.611L1288 651.806L1286 652.194L1285 652.417L1283 653L1281 653.583L1279 654L1277 654.417L1276 654.694L1274 655.306L1273 655.583L1271 655.917L1269 656.083L1267 656.389L1266 656.639L1264 657.139L1263 657.361L1262 657.639L1261 657.861L1259 658.389L1258 658.694L1256 659.306L1255 659.611L1253 660.139L1251 660.611L1249 661L1247 661.417L1246 661.694L1244 662.306L1243 662.583L1242 662.806L1240 663.194L1239 663.389L1237 663.861L1236 664.139L1234 664.639L1232 665.139L1231 665.361L1230 665.639L1229 665.861L1227 666.361L1226 666.611L1224 666.944L1223 667.056L1221 667.389L1220 667.639L1219 667.861L1218 668.139L1216 668.611L1215 668.806L1214 669L1212 669.417L1210 670L1209 670.306L1208 670.611L1206 671.139L1205 671.361L1204 671.639L1203 671.861L1202 672.139L1200 672.639L1199 672.861L1197 673.361L1196 673.639L1195 673.861L1194 674.139L1193.06 674.361L1191.5 674.75L1190 675L1190 646L1193.06 646L1194 646L1199 646L1200 646L1208 646L1209 646L1210 646L1214 646L1216 646L1219 646L1220 646L1221 646L1237 646L1245 646L1253 646L1254 646L1256 646L1258 646L1262 646L1263 646L1264 646L1265 646L1273 646L1274 646L1275 646L1276 646L1277 646L1278 646L1281 646L1283 646L1287 646L1288 646L1289 646L1293 646L1294 646L1298 646L1299 646L1301 646L1302 646L1305 646L1305.94 646L1306.94 646L1309 646

M1316 648L1316 677L1316 678L1316 680L1316 681L1316 685L1316 694L1316 696L1316 697L1316 706L1316 720L1316 721L1316 732L1316 735L1316 737L1316 740L1316 810L1314.5 810L1312.94 810L1312 810L1308 810L1307 810L1304 810L1303 810L1299 810L1298 810L1297 810L1295 810L1293 810L1292 810L1289 810L1286 810L1278 810L1276 810L1275 810L1274 810L1271 810L1267 810L1265 810L1263 810L1255 810L1254 810L1252 810L1244 810L1243 810L1239 810L1231 810L1230 810L1229 810L1228 810L1224 810L1223 810L1215 810L1211 810L1209 810L1201 810L1200 810L1196 810L1190 810L1190 799L1190 680L1191.42 680.778L1191.83 681.306L1192.67 682.111L1193.36 683.028L1194.14 684L1195.61 686L1196.31 687L1197.69 689L1198.39 690L1199.14 691L1200.56 693L1201.17 694L1202.44 696L1203.83 698L1204.56 699L1205.17 700L1205.81 701L1206.94 702.944L1207.31 703.5L1208 705L1209.5 704.5L1210.06 704.167L1211.06 703.75L1213 702.778L1214 702.222L1215 701.778L1216 701.222L1217 700.778L1218 700.222L1219 699.778L1220 699.222L1221 698.778L1222 698.222L1223 697.75L1225 696.611L1227 695.389L1229 694.194L1230 693.611L1232 692.389L1233 691.833L1234 691.25L1236 690.222L1237 689.778L1238 689.222L1240 688.222L1241 687.778L1242 687.222L1243 686.75L1245 685.639L1246 685.056L1248 684.056L1249 683.611L1251 682.583L1253 681.389L1255 680.194L1256 679.611L1258 678.389L1259 677.833L1260 677.25L1262 676.222L1263 675.75L1264 675.167L1266 674.056L1268 673.056L1269 672.639L1271 671.722L1272 671.167L1273 670.611L1275 669.389L1276 668.833L1277 668.25L1279 667.222L1280 666.778L1281 666.222L1283 665.222L1284 664.75L1286 663.611L1288 662.389L1290 661.25L1292 660.222L1293 659.75L1294 659.167L1295 658.611L1297 657.417L1299 656.417L1301 655.583L1302 655.111L1304 654L1305 653.389L1307 652.25L1308 651.75L1310 650.611L1311.94 649.389L1312.5 649.056L1314 648L1316 648

M1306 649L1305.64 650.389L1304.67 651.417L1303.89 651.917L1302 652.917L1301 653.472L1299 654.833L1298 655.528L1296 656.583L1295 657L1293 657.889L1291 659L1290 659.611L1289 660.167L1288 660.75L1286 661.778L1285 662.222L1284 662.778L1283 663.222L1282 663.778L1280 664.778L1279 665.222L1277 666.222L1276 666.778L1275 667.222L1274 667.778L1273 668.25L1271 669.389L1270 670.028L1269 670.667L1267 672L1265 673.306L1264 673.917L1262 674.944L1261 675.389L1260 675.889L1259 676.389L1258 676.944L1256 677.944L1255 678.361L1253 679.25L1252 679.778L1251 680.25L1250 680.833L1249 681.389L1247 682.611L1245 683.75L1244 684.25L1242 685.389L1241 686.028L1239 687.306L1238 687.917L1236 688.944L1235 689.361L1234 689.833L1233 690.25L1232 690.778L1231 691.25L1230 691.833L1229 692.389L1227 693.611L1226 694.167L1225 694.75L1224 695.222L1222 696.25L1221 696.833L1219 697.944L1217 698.944L1215 699.889L1213 701L1212.06 701.583L1211.06 702.111L1210.5 702.472L1209 703L1208.25 701.5L1207.78 700.944L1206.44 699L1205.83 698L1204.56 696L1203.83 695L1202.44 693L1201.83 692.028L1200.56 690.222L1199.17 688.611L1198.44 687.778L1197.19 685.972L1196.61 685L1195.31 683L1193.89 681L1192.69 679.056L1192.11 677.5L1192 676L1194.06 675.917L1196 675.611L1198 675.194L1200 674.806L1201 674.583L1202 674.306L1204 673.694L1205 673.389L1207 672.861L1208 672.611L1209 672.306L1211 671.694L1212 671.417L1214 671.056L1215 670.944L1217 670.528L1218 670.167L1220 669.472L1221 669.222L1223 668.806L1224 668.611L1226 668.139L1227 667.861L1228 667.639L1230 667.222L1231 667.083L1233 666.917L1235 666.583L1236 666.306L1238 665.667L1240 665L1242 664.417L1243 664.194L1245 663.806L1246 663.611L1248 663.194L1249 663L1251 662.583L1252 662.306L1254 661.694L1255 661.417L1256 661.194L1258 660.806L1259 660.611L1261 660.139L1263 659.611L1265 659L1267 658.417L1268 658.194L1270 657.806L1271 657.583L1272 657.306L1274 656.694L1275 656.417L1276 656.222L1277 656.083L1278 656.028L1280 655.917L1282 655.583L1283 655.306L1285 654.694L1286 654.389L1288 653.861L1289 653.639L1291 653.139L1292 652.861L1294 652.389L1295 652.194L1296 652L1298 651.583L1300 650.972L1300.94 650.639L1302.5 649.972L1304 649L1306 649

/M1543 665L1544.5 665.444L1545.06 665.667L1547 666.306L1549 666.806L1551 667.194L1553 667.611L1555 667.944L1556 668.056L1558 668.417L1560 669L1562 669.611L1563 669.861L1564 670.139L1566 670.611L1568 671L1570 671.417L1572 672L1574 672.611L1576 673.139L1578 673.611L1579 673.806L1581 674.194L1582 674.389L1584 674.861L1585 675.139L1587 675.639L1588 675.861L1589 676.139L1590 676.361L1592 676.861L1593 677.139L1595 677.611L1597 678L1599 678.472L1600 678.833L1602 679.528L1604 679.944L1605 680.056L1607 680.389L1608 680.639L1609 680.861L1610 681.139L1612 681.611L1613 681.806L1614 682L1616 682.417L1617 682.694L1619 683.306L1620 683.583L1622 684L1624 684.417L1626 685L1628 685.583L1630 686L1632 686.417L1633 686.694L1635 687.306L1636 687.583L1638 688L1639 688.194L1641 688.611L1642 688.806L1644 689.194L1645 689.417L1647 690L1647.94 690.306L1648.94 690.583L1649.5 690.75L1651 691L1650.72 692.5L1650.08 694.056L1649.58 695L1648.33 697L1647.67 698L1647 699L1645.67 701L1644.33 703L1643.67 704L1642.33 706L1641.67 707L1640.33 709L1639.67 709.972L1639 710.917L1637.67 712.611L1636.42 714.167L1635.89 715.028L1635.53 715.528L1635 717L1633.5 716.306L1632.94 715.944L1631 714.833L1630 714.25L1629 713.778L1627 712.75L1626 712.167L1625 711.611L1623 710.389L1622 709.833L1621 709.25L1619 708.222L1618 707.778L1617 707.222L1616 706.75L1615 706.167L1614 705.611L1612 704.389L1611 703.833L1610 703.25L1608 702.222L1607 701.778L1606 701.222L1604 700.222L1602 699.222L1601 698.75L1599 697.556L1598 696.833L1596 695.472L1595 694.917L1593 693.944L1591 692.944L1590 692.361L1588 691.25L1587 690.75L1585 689.611L1583 688.417L1581 687.389L1580 686.944L1578 685.944L1576 684.833L1575 684.25L1573 683.222L1572 682.778L1571 682.222L1570 681.75L1568 680.611L1566 679.333L1564 678.028L1562 676.833L1561 676.278L1559 675.361L1558 674.944L1556 673.944L1555 673.361L1553 672.25L1552 671.75L1550 670.611L1548 669.417L1546 668.389L1545.03 667.917L1543.39 666.806L1542.64 665.75L1543 665"/>

<path id="bed2" style="fill:#050505; stroke:none;" d="
M1531 626L1531 630L1531 650L1531 653L1531 654L1530.97 656L1530.72 657.889L1530.33 658.694L1530.14 659.222L1529 660L1529 662L1531 662L1531 665.056L1531 669L1531 678L1531 686L1531 708L1531 711L1531 712L1531 717L1531 720L1531 725L1531 728L1531 748L1531 752L1531 755L1531 757L1531 758L1531 761L1531 765L1531 776L1531 781L1531 822L1533.06 822L1534.06 822L1535 822L1536 822L1540 822L1541 822L1543 822L1544 822L1547 822L1549 822L1553 822L1555 822L1560 822L1568 822L1570 822L1578 822L1594 822L1595 822L1597 822L1598 822L1600 822L1601 822L1602 822L1605 822L1610 822L1611 822L1619 822L1623 822L1624 822L1632 822L1636 822L1637 822L1641 822L1642 822L1646 822L1647 822L1651 822L1651.94 822L1652.94 822L1655 822L1655 818.944L1655 811L1655 798L1655 794L1655 784L1655 778L1655 767L1655 757L1655 626L1652.94 626L1651.94 626L1648 626L1647 626L1643 626L1642 626L1640 626L1638 626L1637 626L1633 626L1629 626L1628 626L1627 626L1625 626L1623 626L1622 626L1606 626L1604 626L1600 626L1596 626L1595 626L1594 626L1592 626L1591 626L1583 626L1567 626L1551 626L1550 626L1546 626L1544 626L1543 626L1541 626L1539 626L1538 626L1536 626L1535 626L1534.06 626L1533.06 626L1531 626

M1653 628L1653 660L1652 661L1648 661L1644 661L1643 661L1642 661L1638 661L1637 661L1636 661L1632 661L1630 661L1627 661L1619 661L1617 661L1585 661L1582 661L1580 661L1579 661L1577 661L1576 661L1575 661L1573 661L1571 661L1569 661L1567 661L1566 661L1565 661L1549 661L1533 661L1533 652L1533 628L1535.06 628L1536.06 628L1538 628L1541 628L1542 628L1546 628L1547 628L1548 628L1564 628L1572 628L1573 628L1577 628L1579 628L1581 628L1582 628L1590 628L1598 628L1601 628L1603 628L1607 628L1609 628L1613 628L1616 628L1620 628L1621 628L1622 628L1630 628L1634 628L1635 628L1643 628L1644 628L1648 628L1650.94 628L1653 628

M1541 662L1543.06 662L1544.06 662L1546 662L1548 662L1549 662L1550 662L1553 662L1555 662L1559 662L1563 662L1564 662L1572 662L1576 662L1579 662L1581 662L1585 662L1586 662L1590 662L1595 662L1596 662L1598 662L1606 662L1610 662L1611 662L1613 662L1617 662L1618 662L1619 662L1623 662L1624 662L1625 662L1627 662L1631 662L1635 662L1636 662L1644 662L1648 662L1649 662L1650.94 662L1653 662L1653 664.056L1653 668L1653 670L1653 675L1653 679L1653 689L1650.94 688.917L1649 688.611L1648 688.389L1647 688.194L1645 687.806L1643 687.389L1641 687L1639 686.583L1638 686.306L1636 685.694L1635 685.417L1634 685.194L1632 684.806L1630 684.306L1628 683.667L1626 683L1624 682.389L1623 682.139L1622 681.861L1620 681.389L1618 681.056L1617 680.944L1615 680.611L1614 680.361L1613 680.139L1612 679.861L1610 679.389L1609 679.194L1607 678.806L1606 678.611L1605 678.361L1604 678.139L1602 677.611L1601 677.306L1599 676.694L1598 676.389L1596 675.861L1594 675.389L1592 675.056L1591 674.944L1589 674.583L1588 674.306L1586 673.694L1585 673.417L1583 673L1581 672.583L1580 672.306L1578 671.694L1577 671.417L1575 671L1573 670.611L1571 670.139L1569 669.611L1567 669L1565 668.417L1563 668L1562 667.806L1560 667.389L1559 667.222L1557 666.944L1555 666.528L1553 665.833L1552 665.472L1550 665L1548 664.583L1547 664.306L1545 663.694L1544 663.417L1543.06 663.222L1541.5 663.028L1540 663L1541 662

M1534 664L1535.5 664.528L1536.06 664.889L1537.06 665.389L1538 665.944L1540 666.944L1541 667.361L1543 668.278L1545 669.444L1546 670.139L1548 671.389L1550 672.361L1551 672.833L1552 673.25L1554 674.222L1555 674.778L1556 675.25L1558 676.444L1560 677.833L1561 678.556L1563 679.75L1564 680.222L1566 681.222L1567 681.778L1569 682.75L1570 683.167L1571 683.639L1573 684.611L1575 685.861L1576 686.556L1578 687.75L1579 688.222L1581 689.222L1582 689.778L1583 690.222L1585 691.25L1586 691.833L1587 692.389L1589 693.611L1590 694.167L1591 694.75L1592 695.222L1593 695.778L1594 696.222L1596 697.25L1597 697.833L1598 698.389L1600 699.611L1601 700.167L1602 700.75L1603 701.222L1605 702.25L1607 703.389L1609 704.611L1611 705.75L1613 706.778L1614 707.222L1615 707.778L1617 708.778L1618 709.25L1619 709.833L1620 710.389L1622 711.611L1623 712.167L1624 712.75L1626 713.778L1627 714.25L1628 714.833L1630 715.944L1631 716.472L1632.94 717.5L1633.94 718L1634.5 718.333L1636 719L1636.36 717.5L1636.69 716.944L1637.25 715.944L1638.56 714L1639.83 712L1640.44 711L1641.86 709L1642.61 708L1643.31 707L1644.69 705L1645.39 704L1646.14 703L1647.61 701L1648.97 699L1649.61 698.028L1650.78 696.333L1651.78 695.361L1653 695L1653 697.056L1653 701L1653 703L1653 704L1653 714L1653 734L1653 739L1653 744L1653 746L1653 748L1653 753L1653 757L1653 761L1653 771L1653 775L1653 777L1653 778L1653 788L1653 820L1650.94 820L1649 820L1647 820L1646 820L1642 820L1638 820L1637 820L1636 820L1632 820L1630 820L1627 820L1623 820L1622 820L1621 820L1619 820L1618 820L1616 820L1614 820L1613 820L1611 820L1610 820L1602 820L1601 820L1597 820L1593 820L1592 820L1591 820L1583 820L1579 820L1578 820L1576 820L1572 820L1568 820L1567 820L1563 820L1562 820L1561 820L1553 820L1552 820L1550 820L1548 820L1546 820L1545 820L1543 820L1539 820L1538 820L1537 820L1535.06 820L1533 820L1533 817.944L1533 816.944L1533 814L1533 798L1533 793L1533 765L1533 760L1533 759L1533 755L1533 741L1533 740L1533 708L1533 707L1533 706L1533 677L1533 672L1533 670L1533 668L1533.03 667.028L1533.06 666.111L1533.25 665.306L1533.28 664.778L1534 664z

M1543 665L1544.5 665.444L1545.06 665.667L1547 666.306L1549 666.806L1551 667.194L1553 667.611L1555 667.944L1556 668.056L1558 668.417L1560 669L1562 669.611L1563 669.861L1564 670.139L1566 670.611L1568 671L1570 671.417L1572 672L1574 672.611L1576 673.139L1578 673.611L1579 673.806L1581 674.194L1582 674.389L1584 674.861L1585 675.139L1587 675.639L1588 675.861L1589 676.139L1590 676.361L1592 676.861L1593 677.139L1595 677.611L1597 678L1599 678.472L1600 678.833L1602 679.528L1604 679.944L1605 680.056L1607 680.389L1608 680.639L1609 680.861L1610 681.139L1612 681.611L1613 681.806L1614 682L1616 682.417L1617 682.694L1619 683.306L1620 683.583L1622 684L1624 684.417L1626 685L1628 685.583L1630 686L1632 686.417L1633 686.694L1635 687.306L1636 687.583L1638 688L1639 688.194L1641 688.611L1642 688.806L1644 689.194L1645 689.417L1647 690L1647.94 690.306L1648.94 690.583L1649.5 690.75L1651 691L1650.72 692.5L1650.08 694.056L1649.58 695L1648.33 697L1647.67 698L1647 699L1645.67 701L1644.33 703L1643.67 704L1642.33 706L1641.67 707L1640.33 709L1639.67 709.972L1639 710.917L1637.67 712.611L1636.42 714.167L1635.89 715.028L1635.53 715.528L1635 717L1633.5 716.306L1632.94 715.944L1631 714.833L1630 714.25L1629 713.778L1627 712.75L1626 712.167L1625 711.611L1623 710.389L1622 709.833L1621 709.25L1619 708.222L1618 707.778L1617 707.222L1616 706.75L1615 706.167L1614 705.611L1612 704.389L1611 703.833L1610 703.25L1608 702.222L1607 701.778L1606 701.222L1604 700.222L1602 699.222L1601 698.75L1599 697.556L1598 696.833L1596 695.472L1595 694.917L1593 693.944L1591 692.944L1590 692.361L1588 691.25L1587 690.75L1585 689.611L1583 688.417L1581 687.389L1580 686.944L1578 685.944L1576 684.833L1575 684.25L1573 683.222L1572 682.778L1571 682.222L1570 681.75L1568 680.611L1566 679.333L1564 678.028L1562 676.833L1561 676.278L1559 675.361L1558 674.944L1556 673.944L1555 673.361L1553 672.25L1552 671.75L1550 670.611L1548 669.417L1546 668.389L1545.03 667.917L1543.39 666.806L1542.64 665.75L1543 665z
"
/>"/>
</svg>
